<svg width="337" height="397" viewBox="0 0 337 397" fill="none" xmlns="http://www.w3.org/2000/svg">
<path d="M-48 1H127.059L220.235 94.1071V257.75L336 364.964V396" stroke="#1B1023" stroke-linecap="round"/>
<path d="M-48 57H56.4355L101.597 99.4359V189.966L302 388" stroke="#1B1023" stroke-linecap="round"/>
<path d="M-51 252H36.5614L84.579 302.824H177.789L271 396" stroke="#1B1023" stroke-linecap="round"/>
<path d="M-48 148H58.963L104 193" stroke="#1B1023" stroke-linecap="round"/>
<ellipse cx="6.5" cy="6" rx="6.5" ry="6" transform="matrix(-1 0 0 1 28 1)" fill="#1B1023" fill-opacity="0.3"/>
<ellipse cx="15" cy="14" rx="15" ry="14" transform="matrix(-1 0 0 1 60 357)" fill="#1B1023" fill-opacity="0.3"/>
<circle cx="11" cy="11" r="11" transform="matrix(-1 0 0 1 138 249)" fill="#1B1023" fill-opacity="0.3"/>
<circle cx="14" cy="14" r="14" transform="matrix(-1 0 0 1 99 137)" fill="#1B1023" fill-opacity="0.3"/>
<ellipse cx="11.5" cy="11" rx="11.5" ry="11" transform="matrix(-1 0 0 1 336 249)" fill="#1B1023" fill-opacity="0.3"/>
<circle cx="5.5" cy="5.5" r="5.5" transform="matrix(-1 0 0 1 285 165)" fill="#1B1023" fill-opacity="0.3"/>
<ellipse cx="2.5" cy="3" rx="2.5" ry="3" transform="matrix(-1 0 0 1 268 170)" fill="#1B1023" fill-opacity="0.3"/>
<ellipse cx="8.5" cy="8" rx="8.5" ry="8" transform="matrix(-1 0 0 1 285 182)" fill="#1B1023" fill-opacity="0.3"/>
<ellipse cx="11.5" cy="11" rx="11.5" ry="11" transform="matrix(-1 0 0 1 217 74)" fill="#1B1023" fill-opacity="0.3"/>
<circle cx="8.5" cy="8.5" r="8.5" transform="matrix(-1 0 0 1 127 170)" fill="#1B1023" fill-opacity="0.3"/>
<path d="M175 123V179.111L219 224" stroke="#1B1023" stroke-linecap="round"/>
<circle cx="8.5" cy="8.5" r="8.5" transform="matrix(-1 0 0 1 183 109)" fill="#1B1023" fill-opacity="0.3"/>
<circle cx="19.5" cy="19.5" r="19.5" transform="matrix(-1 0 0 1 233 193)" fill="#1B1023" fill-opacity="0.3"/>
<ellipse cx="11.5" cy="11.5" rx="11.5" ry="11.5" transform="matrix(-1 0 0 1 189 170)" fill="#1B1023" fill-opacity="0.3"/>
</svg>
