<svg width="664" height="301" viewBox="0 0 664 301" fill="none" xmlns="http://www.w3.org/2000/svg">
<path d="M9.472 47.4H31.744V137H9.472V47.4ZM41.472 137H23.808V117.8H40.704C44.1173 117.8 47.4027 117.373 50.56 116.52C53.8027 115.667 56.6187 114.259 59.008 112.296C61.4827 110.333 63.4453 107.731 64.896 104.488C66.3467 101.16 67.072 97.064 67.072 92.2C67.072 87.336 66.3467 83.2827 64.896 80.04C63.4453 76.712 61.4827 74.0667 59.008 72.104C56.6187 70.1413 53.8027 68.7333 50.56 67.88C47.4027 67.0267 44.1173 66.6 40.704 66.6H23.808V47.4H41.472C51.2853 47.4 59.776 49.2347 66.944 52.904C74.112 56.5733 79.6587 61.736 83.584 68.392C87.5093 75.048 89.472 82.984 89.472 92.2C89.472 101.331 87.5093 109.267 83.584 116.008C79.6587 122.664 74.112 127.827 66.944 131.496C59.776 135.165 51.2853 137 41.472 137ZM117.683 137V119.208H162.867V137H117.683ZM117.683 65.192V47.4H162.867V65.192H117.683ZM117.683 98.6V81.192H160.307V98.6H117.683ZM103.347 47.4H124.083V137H103.347V47.4ZM171.512 66.728V47.4H242.424V66.728H217.72V137H196.088V66.728H171.512ZM266.558 137V119.208H311.742V137H266.558ZM266.558 65.192V47.4H311.742V65.192H266.558ZM266.558 98.6V81.192H309.182V98.6H266.558ZM252.222 47.4H272.958V137H252.222V47.4ZM347.779 92.2C347.779 97.6613 349.016 102.397 351.491 106.408C353.966 110.333 357.208 113.32 361.219 115.368C365.315 117.416 369.795 118.44 374.659 118.44C378.926 118.44 382.68 117.885 385.923 116.776C389.166 115.667 392.067 114.216 394.627 112.424C397.187 110.632 399.448 108.712 401.411 106.664V129.96C397.827 132.776 393.902 134.995 389.635 136.616C385.368 138.237 379.95 139.048 373.379 139.048C366.211 139.048 359.598 137.939 353.539 135.72C347.48 133.501 342.275 130.301 337.923 126.12C333.571 121.939 330.2 116.989 327.811 111.272C325.422 105.555 324.227 99.1973 324.227 92.2C324.227 85.2027 325.422 78.8453 327.811 73.128C330.2 67.4107 333.571 62.4613 337.923 58.28C342.275 54.0987 347.48 50.8987 353.539 48.68C359.598 46.4613 366.211 45.352 373.379 45.352C379.95 45.352 385.368 46.1627 389.635 47.784C393.902 49.4053 397.827 51.624 401.411 54.44V77.736C399.448 75.688 397.187 73.768 394.627 71.976C392.067 70.0987 389.166 68.648 385.923 67.624C382.68 66.5147 378.926 65.96 374.659 65.96C369.795 65.96 365.315 66.984 361.219 69.032C357.208 71.08 353.966 74.0667 351.491 77.992C349.016 81.9173 347.779 86.6533 347.779 92.2ZM406.262 66.728V47.4H477.174V66.728H452.47V137H430.838V66.728H406.262ZM501.308 137V119.208H546.492V137H501.308ZM501.308 65.192V47.4H546.492V65.192H501.308ZM501.308 98.6V81.192H543.932V98.6H501.308ZM486.972 47.4H507.708V137H486.972V47.4Z" fill="white"/>
<path d="M7.104 172.8H23.328V240H7.104V172.8ZM17.28 186.144V172.8H30.432C36.128 172.8 40.896 173.696 44.736 175.488C48.64 177.216 51.584 179.712 53.568 182.976C55.552 186.24 56.544 190.176 56.544 194.784C56.544 199.264 55.552 203.168 53.568 206.496C51.584 209.76 48.64 212.288 44.736 214.08C40.896 215.808 36.128 216.672 30.432 216.672H17.28V203.328H30.432C33.696 203.328 36.256 202.592 38.112 201.12C39.968 199.648 40.896 197.536 40.896 194.784C40.896 191.968 39.968 189.824 38.112 188.352C36.256 186.88 33.696 186.144 30.432 186.144H17.28ZM83.7165 209.568H100.517L121.541 240H102.533L83.7165 209.568ZM66.9165 172.8H83.1405V240H66.9165V172.8ZM77.0925 186.528V172.8H91.3965C97.1565 172.8 101.957 173.728 105.797 175.584C109.637 177.44 112.549 180.032 114.533 183.36C116.517 186.624 117.509 190.432 117.509 194.784C117.509 199.072 116.517 202.88 114.533 206.208C112.549 209.472 109.637 212.032 105.797 213.888C101.957 215.744 97.1565 216.672 91.3965 216.672H77.0925V204.096H90.2445C92.4205 204.096 94.2765 203.776 95.8125 203.136C97.4125 202.432 98.6285 201.44 99.4605 200.16C100.293 198.816 100.709 197.216 100.709 195.36C100.709 193.504 100.293 191.936 99.4605 190.656C98.6285 189.312 97.4125 188.288 95.8125 187.584C94.2765 186.88 92.4205 186.528 90.2445 186.528H77.0925ZM139.825 240V226.656H173.713V240H139.825ZM139.825 186.144V172.8H173.713V186.144H139.825ZM139.825 211.2V198.144H171.793V211.2H139.825ZM129.073 172.8H144.625V240H129.073V172.8ZM215.045 212.928L231.461 172.8H250.469L215.045 244.224L179.716 172.8H198.629L215.045 212.928ZM257.51 172.8H274.022V240H257.51V172.8ZM334.628 172.8H350.276V243.36L303.812 202.176V240H288.26V169.44L334.628 210.624V172.8ZM375.039 227.04L376.191 214.656H409.503L410.559 227.04H375.039ZM392.607 197.472L383.199 219.168L383.967 222.72L375.615 240H357.279L392.607 168.576L428.031 240H409.599L401.535 223.392L402.111 219.264L392.607 197.472Z" fill="white"/>
</svg>
