<svg width="40" height="40" viewBox="0 0 40 40" fill="none" xmlns="http://www.w3.org/2000/svg">
<path d="M19.9999 28.3333C20.4721 28.3333 20.868 28.1736 21.1874 27.8541C21.5069 27.5347 21.6666 27.1389 21.6666 26.6666C21.6666 26.1944 21.5069 25.7986 21.1874 25.4791C20.868 25.1597 20.4721 25 19.9999 25C19.5277 25 19.1319 25.1597 18.8124 25.4791C18.493 25.7986 18.3333 26.1944 18.3333 26.6666C18.3333 27.1389 18.493 27.5347 18.8124 27.8541C19.1319 28.1736 19.5277 28.3333 19.9999 28.3333ZM18.3333 21.6666H21.6666V11.6666H18.3333V21.6666ZM19.9999 36.6666C17.6944 36.6666 15.5277 36.2291 13.4999 35.3541C11.4721 34.4791 9.70825 33.2916 8.20825 31.7916C6.70825 30.2916 5.52075 28.5278 4.64575 26.5C3.77075 24.4722 3.33325 22.3055 3.33325 20C3.33325 17.6944 3.77075 15.5278 4.64575 13.5C5.52075 11.4722 6.70825 9.70831 8.20825 8.20831C9.70825 6.70831 11.4721 5.52081 13.4999 4.64581C15.5277 3.77081 17.6944 3.33331 19.9999 3.33331C22.3055 3.33331 24.4721 3.77081 26.4999 4.64581C28.5277 5.52081 30.2916 6.70831 31.7916 8.20831C33.2916 9.70831 34.4791 11.4722 35.3541 13.5C36.2291 15.5278 36.6666 17.6944 36.6666 20C36.6666 22.3055 36.2291 24.4722 35.3541 26.5C34.4791 28.5278 33.2916 30.2916 31.7916 31.7916C30.2916 33.2916 28.5277 34.4791 26.4999 35.3541C24.4721 36.2291 22.3055 36.6666 19.9999 36.6666Z" fill="white"/>
</svg>
