<svg width="388" height="397" viewBox="0 0 388 397" fill="none" xmlns="http://www.w3.org/2000/svg">
<path d="M385 1H209.941L116.765 94.1071V257.75L1 364.964V396" stroke="#1B1023" stroke-linecap="round"/>
<path d="M385 57H280.565L235.403 99.4359V189.966L35 388" stroke="#1B1023" stroke-linecap="round"/>
<path d="M388 252H300.439L252.421 302.824H159.211L66 396" stroke="#1B1023" stroke-linecap="round"/>
<path d="M385 148H278.037L233 193" stroke="#1B1023" stroke-linecap="round"/>
<ellipse cx="315.5" cy="7" rx="6.5" ry="6" fill="#1B1023" fill-opacity="0.3"/>
<circle cx="365.5" cy="195.5" r="8.5" fill="#1B1023" fill-opacity="0.3"/>
<ellipse cx="292" cy="371" rx="15" ry="14" fill="#1B1023" fill-opacity="0.3"/>
<circle cx="210" cy="260" r="11" fill="#1B1023" fill-opacity="0.3"/>
<circle cx="252" cy="151" r="14" fill="#1B1023" fill-opacity="0.3"/>
<ellipse cx="12.5" cy="260" rx="11.5" ry="11" fill="#1B1023" fill-opacity="0.3"/>
<circle cx="57.5" cy="170.5" r="5.5" fill="#1B1023" fill-opacity="0.3"/>
<ellipse cx="71.5" cy="173" rx="2.5" ry="3" fill="#1B1023" fill-opacity="0.3"/>
<ellipse cx="60.5" cy="190" rx="8.5" ry="8" fill="#1B1023" fill-opacity="0.3"/>
<ellipse cx="131.5" cy="85" rx="11.5" ry="11" fill="#1B1023" fill-opacity="0.3"/>
<circle cx="218.5" cy="178.5" r="8.5" fill="#1B1023" fill-opacity="0.3"/>
<path d="M162 123V179.111L118 224" stroke="#1B1023" stroke-linecap="round"/>
<circle cx="162.5" cy="117.5" r="8.5" fill="#1B1023" fill-opacity="0.3"/>
<circle cx="123.5" cy="212.5" r="19.5" fill="#1B1023" fill-opacity="0.3"/>
<circle cx="159.5" cy="181.5" r="11.5" fill="#1B1023" fill-opacity="0.3"/>
</svg>
