<svg width="56" height="56" viewBox="0 0 56 56" fill="none" xmlns="http://www.w3.org/2000/svg">
<path d="M0 46.6666V40.1916C0 38.8694 0.330556 37.6444 0.991667 36.5166C1.65278 35.3888 2.56667 34.5333 3.73333 33.9499C4.27778 33.6777 4.80278 33.4249 5.30833 33.1916C5.85278 32.9583 6.41667 32.7444 7 32.5499V46.6666H0ZM9.33333 30.3333C7.38889 30.3333 5.73611 29.6527 4.375 28.2916C3.01389 26.9305 2.33333 25.2777 2.33333 23.3333C2.33333 21.3888 3.01389 19.736 4.375 18.3749C5.73611 17.0138 7.38889 16.3333 9.33333 16.3333C11.2778 16.3333 12.9306 17.0138 14.2917 18.3749C15.6528 19.736 16.3333 21.3888 16.3333 23.3333C16.3333 25.2777 15.6528 26.9305 14.2917 28.2916C12.9306 29.6527 11.2778 30.3333 9.33333 30.3333ZM9.33333 25.6666C9.99444 25.6666 10.5389 25.4527 10.9667 25.0249C11.4333 24.5583 11.6667 23.9944 11.6667 23.3333C11.6667 22.6721 11.4333 22.1277 10.9667 21.6999C10.5389 21.2333 9.99444 20.9999 9.33333 20.9999C8.67222 20.9999 8.10833 21.2333 7.64167 21.6999C7.21389 22.1277 7 22.6721 7 23.3333C7 23.9944 7.21389 24.5583 7.64167 25.0249C8.10833 25.4527 8.67222 25.6666 9.33333 25.6666ZM9.33333 46.6666V40.1333C9.33333 38.811 9.66389 37.6055 10.325 36.5166C11.025 35.3888 11.9389 34.5333 13.0667 33.9499C15.4778 32.7444 17.9278 31.8499 20.4167 31.2666C22.9056 30.6444 25.4333 30.3333 28 30.3333C30.5667 30.3333 33.0944 30.6444 35.5833 31.2666C38.0722 31.8499 40.5222 32.7444 42.9333 33.9499C44.0611 34.5333 44.9556 35.3888 45.6167 36.5166C46.3167 37.6055 46.6667 38.811 46.6667 40.1333V46.6666H9.33333ZM14 41.9999H42V40.1333C42 39.7055 41.8833 39.3166 41.65 38.9666C41.4556 38.6166 41.1833 38.3444 40.8333 38.1499C38.7333 37.0999 36.6139 36.3221 34.475 35.8166C32.3361 35.2721 30.1778 34.9999 28 34.9999C25.8222 34.9999 23.6639 35.2721 21.525 35.8166C19.3861 36.3221 17.2667 37.0999 15.1667 38.1499C14.8167 38.3444 14.525 38.6166 14.2917 38.9666C14.0972 39.3166 14 39.7055 14 40.1333V41.9999ZM28 27.9999C25.4333 27.9999 23.2361 27.086 21.4083 25.2583C19.5806 23.4305 18.6667 21.2333 18.6667 18.6666C18.6667 16.0999 19.5806 13.9027 21.4083 12.0749C23.2361 10.2471 25.4333 9.33325 28 9.33325C30.5667 9.33325 32.7639 10.2471 34.5917 12.0749C36.4194 13.9027 37.3333 16.0999 37.3333 18.6666C37.3333 21.2333 36.4194 23.4305 34.5917 25.2583C32.7639 27.086 30.5667 27.9999 28 27.9999ZM28 23.3333C29.2833 23.3333 30.3722 22.886 31.2667 21.9916C32.2 21.0583 32.6667 19.9499 32.6667 18.6666C32.6667 17.3833 32.2 16.2944 31.2667 15.3999C30.3722 14.4666 29.2833 13.9999 28 13.9999C26.7167 13.9999 25.6083 14.4666 24.675 15.3999C23.7806 16.2944 23.3333 17.3833 23.3333 18.6666C23.3333 19.9499 23.7806 21.0583 24.675 21.9916C25.6083 22.886 26.7167 23.3333 28 23.3333ZM46.6667 30.3333C44.7222 30.3333 43.0694 29.6527 41.7083 28.2916C40.3472 26.9305 39.6667 25.2777 39.6667 23.3333C39.6667 21.3888 40.3472 19.736 41.7083 18.3749C43.0694 17.0138 44.7222 16.3333 46.6667 16.3333C48.6111 16.3333 50.2639 17.0138 51.625 18.3749C52.9861 19.736 53.6667 21.3888 53.6667 23.3333C53.6667 25.2777 52.9861 26.9305 51.625 28.2916C50.2639 29.6527 48.6111 30.3333 46.6667 30.3333ZM46.6667 25.6666C47.3278 25.6666 47.8722 25.4527 48.3 25.0249C48.7667 24.5583 49 23.9944 49 23.3333C49 22.6721 48.7667 22.1277 48.3 21.6999C47.8722 21.2333 47.3278 20.9999 46.6667 20.9999C46.0056 20.9999 45.4417 21.2333 44.975 21.6999C44.5472 22.1277 44.3333 22.6721 44.3333 23.3333C44.3333 23.9944 44.5472 24.5583 44.975 25.0249C45.4417 25.4527 46.0056 25.6666 46.6667 25.6666ZM49 46.6666V32.5499C49.5833 32.7444 50.1278 32.9583 50.6333 33.1916C51.1778 33.4249 51.7222 33.6777 52.2667 33.9499C53.4333 34.5333 54.3472 35.3888 55.0083 36.5166C55.6694 37.6444 56 38.8694 56 40.1916V46.6666H49Z" fill="white"/>
</svg>
