<svg width="362" height="362" viewBox="0 0 362 362" fill="none" xmlns="http://www.w3.org/2000/svg">
<path d="M88.2373 257.925C101.058 248.121 115.387 240.39 131.225 234.734C147.062 229.078 163.654 226.25 181 226.25C198.346 226.25 214.937 229.078 230.775 234.734C246.612 240.39 260.942 248.121 273.762 257.925C282.561 247.618 289.411 235.928 294.313 222.856C299.215 209.784 301.667 195.832 301.667 181C301.667 147.565 289.914 119.095 266.409 95.5905C242.904 72.0856 214.435 60.3332 181 60.3332C147.565 60.3332 119.095 72.0856 95.5905 95.5905C72.0856 119.095 60.3332 147.565 60.3332 181C60.3332 195.832 62.7842 209.784 67.6863 222.856C72.5884 235.928 79.4387 247.618 88.2373 257.925ZM181 196.083C166.168 196.083 153.661 190.993 143.48 180.811C133.299 170.63 128.208 158.123 128.208 143.292C128.208 128.46 133.299 115.953 143.48 105.772C153.661 95.5905 166.168 90.4998 181 90.4998C195.832 90.4998 208.338 95.5905 218.52 105.772C228.701 115.953 233.792 128.46 233.792 143.292C233.792 158.123 228.701 170.63 218.52 180.811C208.338 190.993 195.832 196.083 181 196.083ZM181 331.833C160.135 331.833 140.526 327.874 122.175 319.955C103.823 312.036 87.8603 301.289 74.2853 287.714C60.7103 274.139 49.9634 258.176 42.0446 239.825C34.1259 221.473 30.1665 201.865 30.1665 181C30.1665 160.135 34.1259 140.526 42.0446 122.175C49.9634 103.823 60.7103 87.8603 74.2853 74.2853C87.8603 60.7103 103.823 49.9634 122.175 42.0446C140.526 34.1259 160.135 30.1665 181 30.1665C201.865 30.1665 221.473 34.1259 239.825 42.0446C258.176 49.9634 274.139 60.7103 287.714 74.2853C301.289 87.8603 312.036 103.823 319.955 122.175C327.874 140.526 331.833 160.135 331.833 181C331.833 201.865 327.874 221.473 319.955 239.825C312.036 258.176 301.289 274.139 287.714 287.714C274.139 301.289 258.176 312.036 239.825 319.955C221.473 327.874 201.865 331.833 181 331.833Z" fill="#1D1B20"/>
</svg>
