<svg width="258" height="258" viewBox="0 0 258 258" fill="none" xmlns="http://www.w3.org/2000/svg">
<path d="M210.7 225.75L142.975 158.025C137.6 162.325 131.419 165.729 124.431 168.238C117.444 170.746 110.008 172 102.125 172C82.5958 172 66.0677 165.236 52.5406 151.709C39.0135 138.182 32.25 121.654 32.25 102.125C32.25 82.5958 39.0135 66.0677 52.5406 52.5406C66.0677 39.0135 82.5958 32.25 102.125 32.25C121.654 32.25 138.182 39.0135 151.709 52.5406C165.236 66.0677 172 82.5958 172 102.125C172 110.008 170.746 117.444 168.238 124.431C165.729 131.419 162.325 137.6 158.025 142.975L225.75 210.7L210.7 225.75ZM102.125 150.5C115.562 150.5 126.984 145.797 136.391 136.391C145.797 126.984 150.5 115.562 150.5 102.125C150.5 88.6875 145.797 77.2656 136.391 67.8594C126.984 58.4531 115.562 53.75 102.125 53.75C88.6875 53.75 77.2656 58.4531 67.8594 67.8594C58.4531 77.2656 53.75 88.6875 53.75 102.125C53.75 115.562 58.4531 126.984 67.8594 136.391C77.2656 145.797 88.6875 150.5 102.125 150.5Z" fill="white"/>
</svg>
