<svg width="52" height="52" viewBox="0 0 52 52" fill="none" xmlns="http://www.w3.org/2000/svg">
<path d="M47.6668 26.0001H4.3335M47.6668 26.0001V39.0001C47.6668 40.1494 47.2103 41.2515 46.3976 42.0642C45.585 42.8769 44.4828 43.3334 43.3335 43.3334H8.66683C7.51756 43.3334 6.41536 42.8769 5.6027 42.0642C4.79004 41.2515 4.3335 40.1494 4.3335 39.0001V26.0001M47.6668 26.0001L40.1918 11.0717C39.8331 10.3498 39.28 9.74222 38.5949 9.31735C37.9098 8.89249 37.1197 8.66718 36.3135 8.66675H15.6868C14.8806 8.66718 14.0906 8.89249 13.4054 9.31735C12.7203 9.74222 12.1672 10.3498 11.8085 11.0717L4.3335 26.0001M13.0002 34.6667H13.0218M21.6668 34.6667H21.6885" stroke="white" stroke-width="4" stroke-linecap="round" stroke-linejoin="round"/>
</svg>
